<svg width="340" height="340" viewBox="0 0 340 340" fill="none" xmlns="http://www.w3.org/2000/svg">
<g filter="url(#filter0_f)">
<circle cx="170" cy="170" r="128" fill="#7E46F2"/>
</g>
<path d="M125.315 133.445C140.048 133.445 143.539 128.357 143.539 124.038C143.539 121.434 142.355 118.949 139.574 117.766C136.971 116.701 133.244 116.405 127.386 116.168C122.179 115.932 117.801 115.873 115.671 115.222C113.896 114.689 113.364 113.743 113.364 112.441C113.364 108.95 117.624 107.412 125.434 107.412C135.078 107.412 136.853 109.956 136.912 113.506H141.882C141.882 108.181 139.042 103.033 125.315 103.033C114.547 103.033 108.157 106.879 108.157 112.618C108.157 114.985 109.163 117.233 111.352 118.358C113.659 119.541 118.334 120.251 124.605 120.428C128.865 120.547 134.072 120.665 135.965 121.198C137.859 121.73 138.332 122.795 138.332 124.156C138.332 126.878 135.788 129.067 125.315 129.067C114.724 129.067 113.127 126.049 113.127 123.15H108.157C108.157 127.469 110.524 133.445 125.315 133.445ZM148.762 132.853H153.141V116.168C153.141 110.666 155.152 107.234 158.17 107.234C160.892 107.234 162.016 109.364 162.016 112.737V132.853H166.394V115.695C166.394 110.311 168.406 107.234 171.482 107.234C174.145 107.234 175.269 109.364 175.269 112.796V132.853H179.647V112.204C179.647 106.465 177.281 103.27 172.962 103.27C169.293 103.27 166.867 105.4 166.276 108.891H166.217C165.802 105.341 163.317 103.27 159.649 103.27C155.862 103.27 153.732 105.873 153.022 109.897H152.904L153.141 103.625H148.762V132.853ZM195.429 133.327C202.706 133.327 206.374 130.428 207.38 125.931H207.439C207.38 128.771 207.262 131.493 207.203 132.853H211.936V115.044C211.936 107.412 206.966 103.152 198.387 103.152C190.459 103.152 185.489 106.643 185.489 112.441C185.489 112.973 185.548 113.802 185.607 114.216H189.985C189.926 113.743 189.926 113.328 189.926 113.151C189.926 109.187 192.884 107.175 198.269 107.175C204.244 107.175 207.203 109.601 207.203 114.63V116.76H195.31C187.5 116.76 184.601 120.31 184.601 124.452C184.601 129.954 188.802 133.327 195.429 133.327ZM196.375 129.303C191.76 129.303 189.039 127.41 189.039 124.452C189.039 121.612 190.932 120.192 195.724 120.192H207.203V120.606C207.203 125.931 203.002 129.303 196.375 129.303ZM218.335 132.853H222.713V92.265H218.335V132.853ZM227.811 132.853H232.189V92.265H227.811V132.853Z" fill="#F9F6FE"/>
<path d="M112.997 191.48H124.864V167.08H141.397V158.546H124.864V156.68C124.864 153.213 126.93 151.48 132.53 151.48C135.597 151.48 138.997 152.08 140.73 152.48V144.346C138.93 143.746 134.93 142.946 130.33 142.946C120.13 142.946 112.997 147.346 112.997 155.88V158.546H106.93V167.08H112.997V191.48ZM145.765 155.946H155.032V148.013H145.765V155.946ZM145.832 191.48H155.032V158.546H145.832V191.48ZM179.842 192.146C197.508 192.146 201.242 186.28 201.242 180.946C201.242 177.613 199.775 175.013 196.708 173.613C193.975 172.346 189.508 171.946 184.575 171.68C180.175 171.413 176.775 171.413 174.508 171.08C172.108 170.68 171.375 170.013 171.375 168.746C171.375 166.68 173.642 165.346 180.175 165.346C186.842 165.346 187.975 167.28 188.042 169.68H199.242C199.242 163.28 195.642 157.88 179.842 157.88C166.642 157.88 159.508 162.546 159.508 169.48C159.508 172.28 160.575 174.746 163.042 176.213C165.508 177.68 170.175 178.413 176.642 178.68C180.242 178.88 184.108 178.88 186.642 179.213C188.775 179.48 189.375 180.346 189.375 181.346C189.375 183.346 187.775 184.68 179.842 184.68C171.642 184.68 170.775 182.68 170.708 180.546H159.508C159.508 185.546 162.175 192.146 179.842 192.146ZM205.661 191.48H214.861V173.88C214.861 169.213 216.528 166.48 219.461 166.48C221.794 166.48 222.928 167.946 222.928 171.08V191.48H232.128V169.346C232.128 162.146 229.261 158.146 223.528 158.146C217.728 158.146 215.594 161.88 214.594 166.413H214.461C214.661 163.746 214.861 159.813 214.861 159.013V145.746H205.661V191.48Z" fill="#F9F6FE"/>
<path d="M116.57 244.64H130.06L135.385 223.162H135.563L140.651 244.64H154.733L165.738 205.708H153.845L148.52 228.902H148.283L142.781 205.708H131.184L125.623 228.902H125.386L119.943 205.708H105.624L116.57 244.64ZM168.339 244.64H179.107V205.708H168.339V244.64ZM183.672 244.64H196.629L196.392 220.263H196.511L215.267 244.64H232.425V205.708H219.467L219.586 225.707H219.527L204.143 205.708H183.672V244.64Z" fill="#F9F6FE"/>
<defs>
<filter id="filter0_f" x="0.333332" y="0.333332" width="339.333" height="339.333" filterUnits="userSpaceOnUse" color-interpolation-filters="sRGB">
<feFlood flood-opacity="0" result="BackgroundImageFix"/>
<feBlend mode="normal" in="SourceGraphic" in2="BackgroundImageFix" result="shape"/>
<feGaussianBlur stdDeviation="20.8333" result="effect1_foregroundBlur"/>
</filter>
</defs>
</svg>
