<svg width="1440" height="240" fill="none" xmlns="http://www.w3.org/2000/svg">
<g filter="url(#filter0_b)">
<path d="M75.7895 17.7313C50.5263 41.3731 25.2632 41.3731 0 17.7313V240H1440V17.7313C1414.74 41.3731 1389.47 41.3731 1364.21 17.7313C1338.95 -5.91045 1313.68 -5.91045 1288.42 17.7313C1263.16 41.3731 1237.89 41.3731 1212.63 17.7313C1187.37 -5.91045 1162.11 -5.91045 1136.84 17.7313C1111.58 41.3731 1086.32 41.3731 1061.05 17.7313C1035.79 -5.91045 1010.53 -5.91045 985.263 17.7313C960 41.3731 934.737 41.3731 909.474 17.7313C884.21 -5.91045 858.947 -5.91045 833.684 17.7313C808.421 41.3731 783.158 41.3731 757.895 17.7313C732.631 -5.91045 707.368 -5.91045 682.105 17.7313C656.842 41.3731 631.579 41.3731 606.316 17.7313C581.052 -5.91045 555.789 -5.91045 530.526 17.7313C505.263 41.3731 480 41.3731 454.737 17.7313C429.474 -5.91045 404.21 -5.91045 378.947 17.7313C353.684 41.3731 328.421 41.3731 303.158 17.7313C277.895 -5.91045 252.632 -5.91045 227.368 17.7313C202.105 41.3731 176.842 41.3731 151.579 17.7313C126.316 -5.91045 101.053 -5.91045 75.7895 17.7313Z" fill="#7E46F2"/>
</g>
<defs>
<filter id="filter0_b" x="-40" y="-40" width="1520" height="320" filterUnits="userSpaceOnUse" color-interpolation-filters="sRGB">
<feFlood flood-opacity="0" result="BackgroundImageFix"/>
<feGaussianBlur in="BackgroundImage" stdDeviation="20"/>
<feComposite in2="SourceAlpha" operator="in" result="effect1_backgroundBlur"/>
<feBlend mode="normal" in="SourceGraphic" in2="effect1_backgroundBlur" result="shape"/>
</filter>
</defs>
</svg>
