<svg width="414" height="160" fill="none" xmlns="http://www.w3.org/2000/svg">
<g filter="url(#filter0_b)">
<path d="M21.7895 5.09776C14.5263 11.8948 7.26316 11.8948 0 5.09776V160H414V5.09776C406.737 11.8948 399.474 11.8948 392.21 5.09776C384.947 -1.69925 377.684 -1.69925 370.421 5.09776C363.158 11.8948 355.895 11.8948 348.632 5.09776C341.368 -1.69925 334.105 -1.69925 326.842 5.09776C319.579 11.8948 312.316 11.8948 305.053 5.09776C297.789 -1.69925 290.526 -1.69925 283.263 5.09776C276 11.8948 268.737 11.8948 261.474 5.09776C254.21 -1.69925 246.947 -1.69925 239.684 5.09776C232.421 11.8948 225.158 11.8948 217.895 5.09776C210.632 -1.69925 203.368 -1.69925 196.105 5.09776C188.842 11.8948 181.579 11.8948 174.316 5.09776C167.053 -1.69925 159.789 -1.69925 152.526 5.09776C145.263 11.8948 138 11.8948 130.737 5.09776C123.474 -1.69925 116.211 -1.69925 108.947 5.09776C101.684 11.8948 94.421 11.8948 87.1579 5.09776C79.8947 -1.69925 72.6316 -1.69925 65.3684 5.09776C58.1053 11.8948 50.8421 11.8948 43.5789 5.09776C36.3158 -1.69925 29.0526 -1.69925 21.7895 5.09776Z" fill="#7E46F2"/>
</g>
<defs>
<filter id="filter0_b" x="-40" y="-40" width="494" height="240" filterUnits="userSpaceOnUse" color-interpolation-filters="sRGB">
<feFlood flood-opacity="0" result="BackgroundImageFix"/>
<feGaussianBlur in="BackgroundImage" stdDeviation="20"/>
<feComposite in2="SourceAlpha" operator="in" result="effect1_backgroundBlur"/>
<feBlend mode="normal" in="SourceGraphic" in2="effect1_backgroundBlur" result="shape"/>
</filter>
</defs>
</svg>
