<svg width="50" height="50" viewBox="0 0 50 50" fill="none" xmlns="http://www.w3.org/2000/svg">
<path d="M25 50C38.8071 50 50 38.8071 50 25C50 11.1929 38.8071 0 25 0C11.1929 0 0 11.1929 0 25C0 38.8071 11.1929 50 25 50Z" fill="#F9F6FE"/>
<path d="M26.1256 6.84033C31.7991 6.84033 36.3985 11.5165 36.3985 17.2847V23.2903C36.3985 29.0588 31.7991 33.7349 26.1256 33.7349C25.2344 33.7349 24.3696 33.6194 23.5452 33.4026L23.5454 34.1116C23.5454 38.3314 20.1644 41.7601 15.9679 41.8284L15.8405 41.8293V18.8515L15.8523 18.8511L15.8526 17.2847C15.8526 11.5165 20.4521 6.84033 26.1256 6.84033ZM26.1256 14.6737C24.7071 14.6737 23.5573 15.8427 23.5573 17.2847V23.2903C23.5573 24.7325 24.7071 25.9015 26.1256 25.9015C27.5441 25.9015 28.6939 24.7325 28.6939 23.2903V17.2847C28.6939 15.8427 27.5441 14.6737 26.1256 14.6737Z" fill="#7E46F2"/>
</svg>
